<svg width="392" height="86" viewBox="0 0 392 86" fill="none" xmlns="http://www.w3.org/2000/svg">
<g clip-path="url(#clip0_174_538)">
<path d="M226.792 25.7215C230.296 11.6469 221.752 0 200.825 0H155.466L138.472 68.8366L148.337 85.7692H180.604C201.747 85.7692 218.126 75.9047 222.336 58.757C224.457 49.968 221.998 43.8219 216.467 40.7488V40.5337C221.712 37.1357 225.419 31.8188 226.792 25.7215ZM199.135 58.2038C198.274 61.7993 195.847 65.487 185.798 65.487H165.208L168.804 50.7363H189.301C199.227 50.7056 199.964 54.4854 199.012 58.2038H199.135ZM203.253 26.1825C202.515 28.9483 200.395 32.3286 191.729 32.3286H173.29L176.363 20.3437H194.802C203.56 20.2822 203.99 23.1094 203.253 26.1825Z" fill="#007ACC"/>
<path d="M255.341 52.5494H296.643L301.344 32.2672H260.319L263.515 20.2822H304.141L308.843 0H242.157L221.014 85.7385H296.55L301.498 65.4563H252.298L255.341 52.5494Z" fill="#007ACC"/>
<path d="M314.62 0L309.888 20.2822H334.565L318.37 85.7385H344.276L360.501 20.2822H386.93L392 0H314.62Z" fill="#007ACC"/>
<path d="M27.1044 85.7387H0.98338L12.2923 39.9501L14.9044 33.0357L7.98997 39.9501L0.307306 47.7249L0 24.8613L27.1044 0.000244141H48.2164L27.1044 85.7387Z" fill="#002F5E"/>
<path d="M121.417 50.2139L113.089 36.1085L153.5 0H115.855L100.489 14.7507L48.3702 62.5368L23.3555 85.7385H58.9723L85.7387 61.8608L94.7427 77.2261C97.8158 81.0981 102.149 85.7999 120.526 85.7999H142.037L121.448 50.1831L121.417 50.2139Z" fill="#002F5E"/>
<path d="M97.6006 10.0178V9.83343C95.2949 6.61676 92.2183 4.03067 88.653 2.31247C85.0878 0.594275 81.1481 -0.200999 77.1955 -0.000374705H49.3843L70.1275 35.2784L97.6006 10.0178Z" fill="#002F5E"/>
</g>
<defs>
<clipPath id="clip0_174_538">
<rect width="392" height="85.7385" fill="white"/>
</clipPath>
</defs>
</svg>
