<svg width="530" height="165" viewBox="0 0 530 165" fill="none" xmlns="http://www.w3.org/2000/svg">
<g clip-path="url(#clip0_174_480)">
<path d="M523.454 87.0945C518.749 77.8613 512.312 69.7378 506.32 61.3479C505.165 59.7499 504.899 58.8177 506.186 56.9533C511.78 48.9186 517.062 40.7063 522.389 32.494C524.032 29.9638 523.499 29.0316 520.525 28.9428C517.95 28.854 517.24 28.854 512.756 28.854C504.455 28.854 504.899 29.875 503.212 32.8492C500.416 37.7765 497.663 43.0146 495.222 47.2317C491.848 41.5497 488.652 36.2672 485.589 30.9848C484.746 29.5199 483.68 28.854 481.949 28.8984C477.732 28.9872 473.515 28.8984 469.342 28.8984C468.499 28.8984 467.478 28.6321 467.034 29.6086C466.59 30.5408 467.389 31.1623 467.833 31.917C473.16 40.2624 478.354 48.6078 483.769 56.9089C484.835 58.507 484.79 59.5279 483.769 61.0816C477.643 70.0485 471.651 79.1042 466.102 88.4262C464.237 91.578 464.592 92.2438 468.366 92.2882C471.384 92.3326 472.627 92.377 477.421 92.3326C481.283 92.3326 483.547 91.3116 485.367 87.8492C488.297 82.3003 491.715 76.9735 495.133 71.2471C497.308 75.0647 499.306 78.5271 501.259 81.9452C503.523 85.9848 505.743 90.0243 507.696 94.2414C510.581 100.412 512.002 106.76 511.602 113.596C510.803 126.203 503.168 140.807 489.806 145.646C481.283 148.753 472.538 149.019 463.793 146.978C451.142 144.048 439.778 137.966 428.414 131.929C420.157 127.534 412.078 122.873 403.333 119.5C390.504 113.685 377.01 110.133 363.027 109.112C349.843 108.136 336.747 109.112 323.874 112.442C317.216 113.818 310.69 115.726 304.298 118.035C285.965 124.649 267.942 132.329 248.765 136.368C234.871 138.81 221.021 140.141 207.304 135.214C204.818 133.749 201.933 132.994 199.714 130.908C201.4 128.911 203.442 127.446 206.372 126.291C195.053 123.584 185.02 119.5 175.077 114.084C179.427 124.693 183.822 135.347 188.305 146.356C189.592 144.048 190.702 142.361 191.546 140.496C192.611 138.188 193.721 138.011 195.94 139.342C207.571 146.223 220.133 149.73 233.672 149.641C248.987 149.552 263.592 145.779 278.019 141.118C296.973 135.036 315.529 127.756 335.416 125.004C349.843 123.007 364.048 123.317 378.208 127.002C391.525 130.464 403.555 136.856 415.496 143.426C428.636 150.662 441.554 158.342 456.291 162.115C468.454 165.222 480.484 166.643 492.825 162.425C524.697 151.505 538.814 117.147 523.499 87.1389L523.454 87.0945Z" fill="#D54793"/>
<path d="M182.756 92.3775C186.751 92.2887 190.746 92.3775 194.742 92.3775C197.716 92.3775 198.204 92.1999 198.16 87.317C198.16 77.1959 198.071 67.0304 198.16 56.9094C198.248 50.9166 202.599 47.2766 208.414 48.0756C213.608 48.8303 216.759 52.8254 216.804 59.0401C216.892 68.9836 216.892 78.8827 216.804 88.8262C216.804 91.4453 217.558 92.5551 220.355 92.3775C223.684 92.1999 227.058 92.1999 230.387 92.3775C233.006 92.5107 234.294 91.6229 234.072 88.915C233.983 87.6277 234.027 86.3404 234.072 85.053C234.205 75.4647 233.583 65.8319 234.471 56.2879C234.959 51.183 238.466 48.2976 243.349 48.2532C248.632 48.2532 252.538 51.183 253.337 56.066C253.648 57.8416 253.737 59.706 253.737 61.526C253.737 70.5817 253.826 79.6374 253.737 88.6931C253.737 91.5341 254.669 92.5551 257.51 92.3775C260.928 92.1555 264.435 92.1999 267.853 92.3775C270.694 92.5551 271.671 91.4897 271.626 88.6931C271.493 77.9949 271.449 67.3412 271.537 56.643C271.582 47.6761 268.652 40.1741 261.594 34.4477C260.262 33.3823 259.774 32.2726 260.44 30.5413C262.837 24.1491 261.771 17.8012 259.907 10.4324C257.732 17.2685 253.515 21.7964 250.141 26.8569C248.987 28.5881 247.389 29.5203 245.258 29.4316C238.333 29.1208 232.252 31.0296 227.502 36.3565C226.436 37.5551 225.416 37.6438 224.261 36.3565C219.423 31.2072 213.208 29.476 206.416 29.3872C204.951 29.3872 203.664 29.2096 202.599 28.0555C198.781 23.9271 195.274 19.6212 193.01 14.3831C192.566 13.3178 192.744 11.8085 191.323 11.0538C189.725 17.0022 188.793 22.9061 190.436 28.7213C191.279 31.6511 190.524 33.3379 188.438 35.1136C183.289 39.5526 180.403 45.279 180.27 52.0708C180.048 64.589 179.871 77.6842 179.871 89.6253C179.871 91.8004 180.759 92.4219 182.756 92.3775Z" fill="#D54793"/>
<path d="M287.429 36.4899L287.474 36.4455L287.518 36.4011L287.429 36.4899Z" fill="#D54793"/>
<path d="M301.19 43.7256C304.564 41.1066 309.003 41.6393 313.087 42.4383C315.44 42.9266 317.26 44.3471 317.881 46.6998C318.547 49.1857 317.127 51.0945 315.262 52.4706C313.531 53.7579 311.445 54.2906 309.314 54.6901C302.611 55.9774 295.73 56.2438 289.383 59.1292C282.324 62.3253 278.862 67.741 279.217 75.3761C279.572 83.6772 283.923 90.1582 291.247 92.2002C301.546 95.0412 311.4 94.4197 319.568 86.4294C320.5 88.2938 320.323 90.6021 322.587 91.5343C326.138 91.5787 329.689 91.6675 333.241 91.7119C335.194 91.7119 336.348 90.9129 335.86 88.7377C334.572 83.1445 334.439 77.4625 334.395 71.7805C334.395 64.0121 334.483 59.5731 334.217 51.8047C334.04 46.9218 332.575 39.0646 328.491 35.7797C328.269 35.5577 322.098 28.8548 304.875 29.3431C299.237 29.5206 292.401 32.1841 288.006 36.1792C287.829 36.3568 285.521 39.0202 285.521 39.0646C284.011 41.151 282.546 45.812 284.278 49.5852C288.006 52.0267 293.644 51.4496 296.086 50.5618C298.527 49.674 298.261 47.7208 299.326 45.9008C299.77 45.1017 300.036 44.6134 301.19 43.7256ZM299.592 67.519C303.055 65.3883 307.05 65.2551 310.868 64.4117C311.8 64.1897 312.732 64.0565 313.709 63.8346C317.112 63.0947 318.754 64.4561 318.636 67.9185C318.37 75.5981 312.91 80.5699 304.653 80.5699C303.987 80.5699 303.366 80.5699 302.7 80.5699C299.282 80.4367 296.529 78.5723 295.997 76.0864C295.242 72.6683 296.663 69.2946 299.592 67.519Z" fill="#D54793"/>
<path d="M141.029 74.8886C134.948 73.6901 131.885 70.1388 131.529 63.9685C131.308 59.9733 131.485 55.9782 131.308 51.983C131.219 49.6747 132.24 48.8757 134.415 48.9201C136.457 48.9645 138.543 48.8313 140.541 48.9201C142.982 49.0976 143.826 47.9879 143.737 45.6796C143.648 43.3269 143.648 40.9298 143.648 38.5771C143.648 33.3094 141.059 30.6755 135.88 30.6755C132.861 30.6755 131.337 29.1958 131.308 26.2365C131.308 20.5545 131.308 20.5101 125.847 19.2227C120.032 17.891 115.238 14.6505 110.089 10.4778C110.089 15.5383 110.089 19.7998 110.089 24.1057C110.089 30.3648 110.089 30.4536 103.741 30.5867C101.699 30.6311 100.811 31.297 100.9 33.4277C101.033 36.757 100.944 40.1307 100.989 43.46C100.989 48.6537 101.033 48.7425 106.182 48.8313C108.979 48.8757 110.311 49.8967 110.178 52.8708C110 58.8192 110.044 64.7231 110.71 70.6271C111.82 80.2599 116.614 87.0516 125.981 90.3365C130.642 91.979 135.436 92.3341 140.319 92.3341C142.893 92.3341 144.092 91.3575 144.048 88.7385C143.959 85.4092 143.914 82.0355 144.136 78.7062C144.314 76.2647 143.337 75.2881 140.985 74.7998L141.029 74.8886Z" fill="#D54793"/>
<path d="M398.495 91.9781C401.957 91.9781 405.375 91.8893 408.838 91.9781C412.789 91.9781 412.256 87.6278 412.256 86.4293C412.256 76.3082 412.256 66.1428 412.256 56.0217C412.256 49.5851 415.319 46.1226 421.534 45.2348C422.466 45.1016 423.487 45.146 424.419 45.1904C426.727 45.2348 427.793 44.125 427.748 41.8611C427.748 38.6206 427.837 35.38 427.748 32.1395C427.659 28.899 426.061 27.4341 422.865 27.4785C419.181 27.5673 416.384 29.4317 414.031 32.1395C413.099 33.2049 412.3 34.4035 410.88 36.2679C410.88 34.4478 410.791 33.6044 410.88 32.761C411.235 29.7424 410.125 28.4107 406.885 28.7215C404.088 28.9878 401.291 28.899 398.495 28.7215C396.009 28.5883 395.032 29.4761 395.032 32.0508C395.077 50.828 395.077 69.5608 395.032 88.3381C395.032 90.7352 395.965 91.9781 398.406 91.9781H398.495Z" fill="#D54793"/>
<path d="M160.694 6.74756C155.323 6.74756 150.839 11.1866 150.795 16.6023C150.795 22.1955 154.701 26.1907 160.294 26.235C166.065 26.2794 170.327 22.2843 170.371 16.7355C170.371 11.231 166.11 6.74756 160.694 6.74756Z" fill="#D54793"/>
<path d="M167.086 31.1189C164.068 31.1633 157.276 31.1189 154.258 31.1189C151.638 31.1189 151.106 32.0067 151.195 34.6258C151.683 51.361 150.928 71.6032 150.973 88.3384C150.973 89.8477 150.884 92.2004 152.926 92.2448H166.376C168.906 92.2448 169.262 91.135 169.306 88.8711C169.262 80.3925 169.661 46.2117 169.794 33.516C169.794 31.6516 168.773 31.1189 167.086 31.1633V31.1189Z" fill="#D54793"/>
<path d="M99.435 56.9085C98.8579 38.0425 81.5456 25.4799 62.5464 30.0522C58.2405 31.0731 55.9766 36.0449 52.5585 37.421C53.0468 34.3137 51.4487 30.5848 48.6077 30.6736C44.8345 30.7624 41.0613 30.7624 37.2881 30.6736C34.8023 30.5848 33.8257 31.4283 33.8257 34.0473C33.9144 52.3807 33.8257 70.714 33.8701 89.0473C33.8701 90.2015 33.6481 91.4888 35.0686 92.1103C39.996 92.7761 44.9233 92.1991 49.8951 92.3766C54.3785 92.5542 54.4229 92.3766 54.4673 87.9819C54.5117 78.6155 54.778 69.2935 55 59.8827C55.1332 53.8899 56.82 52.0255 60.8596 50.9158C65.9201 49.4953 72.268 49.9836 75.8192 53.5348C77.95 56.6865 78.527 60.2378 78.527 63.9222C78.527 72.0901 78.527 80.2136 78.527 88.3815C78.527 89.7132 78.1719 91.8883 80.3471 92.0215C88.3818 92.0215 89.0032 92.0215 97.7038 92.0215C99.9677 92.0215 99.7458 90.1127 99.7458 88.9585C99.7458 86.4727 99.7458 72.5784 99.4794 56.9085H99.435Z" fill="#D54793"/>
<path d="M2.92971 92.3776C14.2049 92.3776 15.0484 92.3776 20.1089 92.3776C22.5948 92.3776 23.527 91.401 23.527 88.9152C23.4382 67.6077 23.4382 46.3445 23.4382 25.037C23.4382 21.7077 23.1275 18.3784 22.284 15.1379C22.0177 14.1613 20.7747 10.3437 20.3308 9.32274C19.443 7.19199 18.3777 5.19441 17.0015 3.41879C13.5391 -1.10906 9.49953 -1.15345 6.21462 3.50757C3.19606 7.72468 1.28726 12.2969 0.443838 17.535C0.266276 18.6004 -6.79381e-05 25.7917 -6.79381e-05 26.857C-0.0888492 38.3542 -6.79381e-05 73.1121 0.0887133 86.4293C0.0887133 89.0039 -0.0888494 92.422 2.88532 92.422L2.92971 92.3776Z" fill="#D54793"/>
<path d="M380.783 74.8864C374.701 73.6879 371.638 70.1366 371.283 63.9663C371.061 59.9711 371.239 55.976 371.061 51.9808C370.973 49.6725 371.994 48.8735 374.169 48.9179C376.211 48.9623 378.297 48.8291 380.295 48.9179C382.736 49.0954 383.58 47.9857 383.491 45.6774C383.402 43.3247 383.402 40.9276 383.402 38.5749C383.402 33.3072 380.813 30.6733 375.634 30.6733C372.615 30.6733 371.091 29.1936 371.061 26.2343C371.061 20.5523 371.061 20.5079 365.601 19.2205C359.786 17.8888 354.992 14.6483 349.843 10.4756C349.843 15.5361 349.843 19.7976 349.843 24.1035C349.843 30.3626 349.843 30.4514 343.495 30.5845C341.453 30.6289 340.565 31.2948 340.654 33.4255C340.787 36.7548 340.698 40.1285 340.743 43.4578C340.743 48.6515 340.787 48.7403 345.936 48.8291C348.733 48.8735 350.065 49.8945 349.931 52.8686C349.754 58.817 349.798 64.7209 350.464 70.6249C351.574 80.2577 356.368 87.0494 365.735 90.3343C370.396 91.9768 375.19 92.3319 380.073 92.3319C382.647 92.3319 383.846 91.3553 383.802 88.7363C383.713 85.407 383.668 82.0333 383.89 78.704C384.068 76.2625 383.091 75.2859 380.739 74.7976L380.783 74.8864Z" fill="#D54793"/>
<path d="M444.794 6.74756C439.423 6.74756 434.939 11.1866 434.895 16.6023C434.895 22.1955 438.801 26.1907 444.395 26.235C450.165 26.2794 454.427 22.2843 454.471 16.7355C454.471 11.231 450.21 6.74756 444.794 6.74756Z" fill="#D54793"/>
<path d="M451.142 31.1169C448.123 31.1613 441.332 31.1169 438.313 31.1169C435.694 31.1169 435.161 32.0048 435.25 34.6238C435.739 51.3591 434.984 71.6012 435.028 88.3365C435.028 89.8458 434.939 92.1985 436.981 92.2429H450.432C452.962 92.2429 453.317 91.1331 453.362 88.8692C453.317 80.3906 453.717 46.2098 453.85 33.514C453.85 31.6496 452.829 31.1169 451.142 31.1613V31.1169Z" fill="#D54793"/>
</g>
<defs>
<clipPath id="clip0_174_480">
<rect width="529.669" height="165" fill="white"/>
</clipPath>
</defs>
</svg>
